<?xml version="1.0" encoding="UTF-8" standalone="no"?>
<svg
   version="1.1"
   width="1000"
   height="1000"
   viewBox="0 0 750 750"
   id="svg5"
   sodipodi:docname="marathon_logo.svg"
   inkscape:version="1.4.2 (ebf0e940d0, 2025-05-08)"
   xmlns:inkscape="http://www.inkscape.org/namespaces/inkscape"
   xmlns:sodipodi="http://sodipodi.sourceforge.net/DTD/sodipodi-0.dtd"
   xmlns="http://www.w3.org/2000/svg"
   xmlns:svg="http://www.w3.org/2000/svg">
  <defs
     id="defs5" />
  <sodipodi:namedview
     id="namedview5"
     pagecolor="#505050"
     bordercolor="#ffffff"
     borderopacity="1"
     inkscape:showpageshadow="0"
     inkscape:pageopacity="0"
     inkscape:pagecheckerboard="1"
     inkscape:deskcolor="#d1d1d1"
     inkscape:document-units="pt"
     showgrid="false"
     inkscape:zoom="0.28567114"
     inkscape:cx="-182.02749"
     inkscape:cy="273.04123"
     inkscape:window-width="2560"
     inkscape:window-height="1413"
     inkscape:window-x="0"
     inkscape:window-y="0"
     inkscape:window-maximized="1"
     inkscape:current-layer="g4" />
  <g
     inkscape:label="02"
     inkscape:groupmode="layer"
     id="g4"
     transform="translate(-93.75,-93.75)">
    <path
       id="circle3"
       style="fill:#ffffff;stroke:none;stroke-width:1.33333"
       d="m 468.75,93.75 a 375,375 0 0 0 -375,375 375,375 0 0 0 340.76563,372.55273 V 605.00585 A 239.89596,239.89596 0 0 1 228.85352,367.57227 239.89596,239.89596 0 0 1 468.75,127.67579 239.89596,239.89596 0 0 1 708.64648,367.57227 239.89596,239.89596 0 0 1 502.98437,605.00585 V 841.30273 A 375,375 0 0 0 843.75,468.75 a 375,375 0 0 0 -375,-375 z m 0,71.625 A 202.19657,202.19657 0 0 0 266.55273,367.57227 202.19657,202.19657 0 0 0 468.75,569.76757 202.19657,202.19657 0 0 0 670.94727,367.57227 202.19657,202.19657 0 0 0 468.75,165.375 Z" />
  </g>
</svg>
